<svg id="ewsz4guxp8yl1" xmlns="http://www.w3.org/2000/svg" xmlns:xlink="http://www.w3.org/1999/xlink" viewBox="0 0 150 150" shape-rendering="geometricPrecision" text-rendering="geometricPrecision">
    <path id="ewsz4guxp8yl2" d="M51,6.160000C51,6.280000,51,43.850000,51,43.980000L51,69.650000C51,69.710000,51,69.770000,51,69.880000C51.090000,69.820000,51.160000,69.800000,51.200000,69.750000C51.265800,69.657056,51.325910,69.560212,51.380000,69.460000L57.470000,59.230000C57.532347,59.075748,57.683668,58.976195,57.850000,58.980000L76.760000,58.980000L77,59C76.951763,59.110936,76.894923,59.217929,76.830000,59.320000L70.410000,70.720000C69.660000,72.060000,68.910000,73.400000,68.140000,74.720000C68.036653,74.855919,68.036653,75.044081,68.140000,75.180000C68.350000,75.460000,68.530000,75.750000,68.720000,76.040000Q78.170000,90.350000,87.640000,104.650000C88.020000,105.220000,88.390000,105.800000,88.760000,106.370000L68.310000,106.370000L68.110000,106.060000L63.110000,98.540000L51.580000,81.420000L51.220000,80.890000C51.160000,80.790000,51.100000,80.720000,50.960000,80.810000L50.960000,106.050000C50.960000,106.160000,50.960000,106.280000,50.960000,106.390000L34,106.390000L34,14.740000C3.538461,35.490345,-6.652970,75.706805,10.250000,108.460000L88.750000,108.460000L88.750000,109.920000L11,109.920000C20.555432,127.420302,36.859394,140.245195,56.117872,145.410260C75.376350,150.575326,95.909805,147.630117,112.940000,137.260000C92.590000,106.260000,92.550000,106.200000,92.500000,106.120000L85.810000,96Q79,85.740000,72.270000,75.500000C72,75.100000,72.110000,74.710000,72.080000,74.290000L82.700000,74.290000C83.518054,74.295020,84.334834,74.224724,85.140000,74.080000C87.119129,73.738299,88.979960,72.902472,90.550000,71.650000C93.511636,69.466861,94.846177,65.700840,93.920000,62.140000C93.501303,60.108754,92.158902,58.389150,90.290000,57.490000C89.457305,57.072398,88.567826,56.779275,87.650000,56.620000C86.660624,56.438444,85.655780,56.354707,84.650000,56.370000L59.440000,56.370000L59.190000,56.370000L59.390000,56.030000Q63,49.910000,66.570000,43.840000L66.680000,43.610000L91.400000,43.610000C91.469680,43.619466,91.540320,43.619466,91.610000,43.610000C93.231338,43.660717,94.846244,43.837922,96.440000,44.140000C98.380577,44.483331,100.271479,45.064372,102.070000,45.870000C106.555217,47.812498,109.979760,51.601742,111.460000,56.260000C111.982379,57.838709,112.318000,59.473184,112.460000,61.130000C112.620001,62.669186,112.620001,64.220814,112.460000,65.760000C112.273103,67.576652,111.779436,69.348445,111,71C109.851894,73.416501,108.193862,75.555568,106.140000,77.270000C103.404756,79.568453,100.220329,81.271356,96.790000,82.270000L96.350000,82.410000L96.520000,82.690000Q100.870000,89.440000,105.230000,96.190000L111.650000,106.190000C111.650000,106.260000,111.720000,106.340000,125.650000,127.520000C150.378878,103.727678,155.172695,65.912950,137.163024,36.702613C119.153354,7.492276,83.214162,-5.208464,50.850000,6.200000" fill="none" stroke="rgb(84,183,138)" stroke-width="1" stroke-miterlimit="10" stroke-dashoffset="1212.070000" stroke-dasharray="1212.070000"/>
</svg>
